<svg width="39" height="26" viewBox="0 0 39 26" fill="none" xmlns="http://www.w3.org/2000/svg">
<path d="M7.49998 1.5457C7.3846 1.00631 7.26921 0.775146 6.84614 0.775146H6.80767C6.76921 0.775146 6.76921 0.775146 6.73075 0.775146C5.84613 0.775146 3.03844 0.775146 1.76921 0.775146C1.57691 0.775146 1.42306 0.775146 1.30767 0.775146C1.23075 0.775146 1.15383 0.775146 1.07691 0.775146H1.03844H0.999984C0.961522 0.775146 0.923059 0.775146 0.884598 0.775146C0.884598 0.775146 0.884595 0.775146 0.846134 0.775146C0.807672 0.775146 0.807674 0.775146 0.769212 0.813674C0.73075 0.813674 0.730748 0.852201 0.730748 0.852201L0.69229 0.890728C0.69229 0.890728 0.692288 0.929259 0.653826 0.929259C0.653826 0.967787 0.615368 0.967785 0.615368 1.00631C0.615368 1.00631 0.615366 1.04484 0.576904 1.08337C0.576904 1.1219 0.576904 1.16043 0.576904 1.16043C0.576904 1.16043 0.576904 1.19895 0.576904 1.23748C0.576904 1.31454 0.576907 1.39159 0.615368 1.46865C0.615368 1.58423 0.653829 1.69981 0.69229 1.8154C0.999982 2.93271 2.5769 8.67336 4.03844 13.9132C4.03844 13.9517 4.03844 13.9517 4.07691 13.9902C5.3846 18.6521 6.5769 23.0057 6.69229 23.391C7.15382 24.7395 8.07691 25.8568 9.53844 25.8568C9.53844 25.8568 10.6154 21.9655 11.8846 17.3036C9.96152 10.5998 7.65383 2.20068 7.49998 1.5457Z" fill="#2A343E"/>
<path d="M23.1923 1.39159C23.1923 1.31454 23.1538 1.27601 23.1538 1.19895C23.1154 1.08337 23.0769 1.00631 23.0384 0.967786C23.0384 0.967786 23.0384 0.967786 23.0384 0.929258L23 0.890728C23 0.890728 23 0.929258 23.0384 0.929258C23.0384 0.967786 23.0769 0.967785 23.0769 1.00631C23.0769 1.00631 23.0769 1.04484 23.1154 1.08337C23.1154 1.1219 23.1154 1.16042 23.1154 1.16042C23.1154 1.16042 23.1154 1.19895 23.1154 1.23748C23.1154 1.31454 23.1154 1.39159 23.0769 1.46865C23.0769 1.58423 23.0384 1.69981 23 1.8154C22.6923 2.93271 21.1538 8.59631 19.6923 13.7976C19.6923 13.8361 19.6923 13.8746 19.7307 13.9132C19.7307 13.9517 19.7307 13.9517 19.7692 13.9902C21.0769 18.6521 22.2692 23.0057 22.3846 23.391C22.8461 24.7395 23.7692 25.8568 25.2308 25.8568C25.2308 25.8568 25.7308 24.046 26.4231 21.4646C26.6923 20.4244 27.0384 19.2685 27.3461 18.0742C27.4231 17.843 27.4615 17.6118 27.5384 17.3421C25.7308 10.8309 23.5 2.54743 23.1923 1.39159Z" fill="#2A343E"/>
<path d="M38.8461 1.19895C38.8461 1.16042 38.8461 1.16043 38.8461 1.1219C38.8461 1.08337 38.8461 1.04484 38.8077 1.04484C38.8077 1.00631 38.7692 1.00631 38.7692 0.967786C38.7692 0.967786 38.7692 0.929259 38.7308 0.929259L38.6923 0.890729L38.6538 0.852201C38.6154 0.852201 38.6154 0.813674 38.5769 0.813674C38.5769 0.813674 38.5769 0.813674 38.5384 0.813674C38.5 0.813674 38.4615 0.813674 38.4231 0.813674C38.3846 0.813674 38.3846 0.813674 38.3846 0.813674H38.3461C38.2692 0.813674 38.2308 0.813674 38.1154 0.813674C38 0.813674 37.8461 0.813674 37.6538 0.813674C36.3846 0.813674 33.6154 0.813674 32.6923 0.813674C32.6538 0.813674 32.6538 0.813674 32.6154 0.813674H32.5769C32.1538 0.852202 32.0384 1.08337 31.9231 1.58423C31.7692 2.23921 29.4615 10.6768 27.5769 17.4577C27.5 17.6889 27.4615 17.9586 27.3846 18.1898C27.0384 19.4226 26.7307 20.5785 26.4615 21.5802C25.7307 24.2001 25.2692 25.9724 25.2692 25.9724H29.9231C31.3846 25.9724 32.3461 24.8551 32.7692 23.5066C32.8846 23.1213 34.1154 18.7677 35.3846 14.1058C35.3846 14.0673 35.3846 14.0673 35.4231 14.0287C36.8846 8.78895 38.4615 3.04829 38.7692 1.93098C38.8077 1.8154 38.8461 1.69982 38.8461 1.58423C38.8461 1.50718 38.8846 1.43012 38.8846 1.35307C38.8461 1.23748 38.8461 1.19895 38.8461 1.19895Z" fill="#F00843"/>
<path d="M23.1154 1.19895C23.1154 1.16042 23.1154 1.16043 23.1154 1.1219C23.1154 1.08337 23.1154 1.04484 23.0769 1.04484C23.0769 1.00631 23.0384 1.00631 23.0384 0.967786C23.0384 0.967786 23.0384 0.929259 23 0.929259L22.9615 0.890729L22.9231 0.852201C22.8846 0.852201 22.8846 0.813674 22.8461 0.813674C22.8461 0.813674 22.8461 0.813674 22.8077 0.813674C22.7692 0.813674 22.7308 0.813674 22.6923 0.813674C22.6538 0.813674 22.6538 0.813674 22.6538 0.813674H22.6154C22.5384 0.813674 22.5 0.813674 22.3846 0.813674C22.2692 0.813674 22.1154 0.813674 21.9231 0.813674C20.6538 0.813674 17.8846 0.813674 16.9615 0.813674C16.9231 0.813674 16.9231 0.813674 16.8846 0.813674H16.8461C16.4231 0.852202 16.3077 1.08337 16.1923 1.58423C16.0384 2.23921 13.7308 10.6768 11.8461 17.4192C10.5769 22.0811 9.49998 25.9339 9.49998 25.9724C9.49998 25.9724 9.49998 25.9724 9.53845 25.9724H14.1923C14.1923 25.9724 14.1923 25.9724 14.2308 25.9724C15.6923 25.9724 16.6154 24.8551 17.0769 23.5066C17.1923 23.1213 18.4231 18.7677 19.6923 14.1058C19.6923 14.0673 19.6923 14.0673 19.7307 14.0287C21.1923 8.78895 22.7692 3.04829 23.0769 1.93098C23.1154 1.8154 23.1538 1.69982 23.1538 1.58423C23.1538 1.50718 23.1923 1.43012 23.1923 1.35307C23.1154 1.23748 23.1154 1.19895 23.1154 1.19895Z" fill="#F00843"/>
</svg>
